PathFileType	4	(X/Y/Z)	RBDS09static.trc
DataRate	CameraRate	NumFrames	NumMarkers	Units	OrigDataRate	OrigDataStartFrame	OrigNumFrames
150.000000	150.000000	4	48	mm	150.000000	0	150
Frame#	Time	L.Ankle			L.Ankle.Medial			L.ASIS			L.GTR			L.Heel.Bottom			L.Heel.Lateral			L.Heel.Top			L.HF			L.Iliac.Crest			L.Knee			L.Knee.Medial			L.MT1			L.MT2			L.MT5			L.PSIS			L.Shank.Bottom.Lateral			L.Shank.Bottom.Medial			L.Shank.Top.Lateral			L.Shank.Top.Medial			L.Thigh.Bottom.Lateral			L.Thigh.Bottom.Medial			L.Thigh.Top.Lateral			L.Thigh.Top.Medial			L.TT			R.Ankle			R.Ankle.Medial			R.ASIS			R.GTR			R.Heel.Bottom			R.Heel.Lateral			R.Heel.Top			R.HF			R.Iliac.Crest			R.Knee			R.Knee.Medial			R.MT1			R.MT2			R.MT5			R.PSIS			R.Shank.Bottom.Lateral			R.Shank.Bottom.Medial			R.Shank.Top.Lateral			R.Shank.Top.Medial			R.Thigh.Bottom.Lateral			R.Thigh.Bottom.Medial			R.Thigh.Top.Lateral			R.Thigh.Top.Medial			R.TT			
		X1	Y1	Z1	X2	Y2	Z2	X3	Y3	Z3	X4	Y4	Z4	X5	Y5	Z5	X6	Y6	Z6	X7	Y7	Z7	X8	Y8	Z8	X9	Y9	Z9	X10	Y10	Z10	X11	Y11	Z11	X12	Y12	Z12	X13	Y13	Z13	X14	Y14	Z14	X15	Y15	Z15	X16	Y16	Z16	X17	Y17	Z17	X18	Y18	Z18	X19	Y19	Z19	X20	Y20	Z20	X21	Y21	Z21	X22	Y22	Z22	X23	Y23	Z23	X24	Y24	Z24	X25	Y25	Z25	X26	Y26	Z26	X27	Y27	Z27	X28	Y28	Z28	X29	Y29	Z29	X30	Y30	Z30	X31	Y31	Z31	X32	Y32	Z32	X33	Y33	Z33	X34	Y34	Z34	X35	Y35	Z35	X36	Y36	Z36	X37	Y37	Z37	X38	Y38	Z38	X39	Y39	Z39	X40	Y40	Z40	X41	Y41	Z41	X42	Y42	Z42	X43	Y43	Z43	X44	Y44	Z44	X45	Y45	Z45	X46	Y46	Z46	X47	Y47	Z47	X48	Y48	Z48	

1	0	693.3857421875	98.40516662597656	1047.584350585938	709.8004150390625	109.5041885375977	1133.847900390625	822.95556640625	983.838623046875	1113.476318359375	746.7099609375	902.6981811523438	1069.684814453125	627.7821044921875	38.75620651245117	1081.559448242188	664.3560180664063	60.72581481933594	1044.104248046875	635.2509155273438	88.46253204345703	1084.058471679688	706.7483520507813	459.8688659667969	1051.686279296875	758.3070068359375	1047.4892578125	1081.0341796875	707.7169799804688	523.42236328125	1058.226318359375	700.2852783203125	507.4266052246094	1187.49658203125	837.2694091796875	55.08518218994141	1136.19921875	835.7640991210938	70.04044342041016	1086.123901367188	810.7941284179688	51.43332672119141	1028.01171875	663.9218139648438	1019.924621582031	1200.838134765625	683.3241577148438	193.3813934326172	1037.462158203125	644.0712890625	188.1637420654297	1073.235107421875	670.8667602539063	272.3952941894531	1031.93701171875	631.5621948242188	267.9366149902344	1067.816528320313	684.9124145507813	642.1522216796875	1056.341552734375	637.9772338867188	644.0963134765625	1112.541259765625	689.8958740234375	752.9070434570313	1059.341064453125	649.2219848632813	753.9490966796875	1115.873779296875	757.04931640625	440.5084533691406	1108.18701171875	698.3570556640625	99.50775909423828	1416.493286132813	714.2025146484375	115.5367584228516	1329.02978515625	829.6286010742188	980.275634765625	1347.978149414063	760.195556640625	898.5560302734375	1394.77978515625	630.5108032226563	38.05999755859375	1376.59765625	667.37841796875	60.45573043823242	1418.123657226563	638.5693969726563	86.50761413574219	1374.32421875	721.3067626953125	456.7479248046875	1418.729736328125	775.5900268554688	1049.364501953125	1388.644653320313	725.759521484375	523.6663818359375	1411.784301757813	699.47412109375	503.6492614746094	1282.446166992188	835.2479858398438	59.96435928344727	1326.873291015625	843.4940795898438	69.22465515136719	1372.724243164063	812.1178588867188	49.25212097167969	1436.77880859375	666.7793579101563	1014.849365234375	1276.721801757813	671.768798828125	185.2674102783203	1417.606567382813	646.743896484375	188.2562103271484	1372.2685546875	661.4508666992188	269.2249145507813	1426.03515625	635.847412109375	267.923828125	1379.42333984375	724.8104248046875	603.37353515625	1422.955444335938	662.102294921875	601.8675537109375	1384.646850585938	721.21533203125	713.9432373046875	1421.143798828125	663.0384521484375	712.026123046875	1383.290649414063	767.6289672851563	437.5467224121094	1361.610473632813	
2	0.006666666666666667	693.3795166015625	98.41165924072266	1047.584838867188	709.7906494140625	109.5121612548828	1133.853271484375	822.9627685546875	983.8411254882813	1113.476806640625	746.7305908203125	902.6984252929688	1069.678955078125	627.7862548828125	38.75276565551758	1081.5546875	664.3408813476563	60.72945404052734	1044.098510742188	635.2482299804688	88.47611236572266	1084.0693359375	706.7239990234375	459.8736877441406	1051.66943359375	758.2924194335938	1047.484497070313	1081.039916992188	707.6959838867188	523.4309692382813	1058.22314453125	700.2662353515625	507.4283752441406	1187.484497070313	837.2713623046875	55.09776306152344	1136.19970703125	835.7623901367188	70.03836059570313	1086.121215820313	811.031494140625	51.63159561157227	1028.040771484375	663.9201049804688	1019.9365234375	1200.82666015625	683.311279296875	193.3897094726563	1037.458984375	644.0648803710938	188.1645965576172	1073.231689453125	670.85009765625	272.4000549316406	1031.929077148438	631.5496215820313	267.9438171386719	1067.806274414063	684.9077758789063	642.1546020507813	1056.338012695313	637.9644165039063	644.1033325195313	1112.538208007813	689.8896484375	752.908447265625	1059.331176757813	649.20751953125	753.9561157226563	1115.865478515625	757.0291137695313	440.5142517089844	1108.173217773438	698.4954833984375	99.43064880371094	1416.513916015625	714.2002563476563	115.5432662963867	1329.02978515625	829.6092529296875	980.2733154296875	1347.968505859375	760.203125	898.6890869140625	1395.0849609375	630.517822265625	38.05891799926758	1376.596923828125	667.3799438476563	60.45995330810547	1418.119995117188	638.5676879882813	86.51351928710938	1374.318725585938	721.2901611328125	456.7520141601563	1418.719848632813	775.5887451171875	1049.334228515625	1388.677612304688	725.7360229492188	523.6583862304688	1411.765869140625	699.46728515625	503.6574401855469	1282.43408203125	835.2449951171875	59.9671630859375	1326.87451171875	843.487060546875	69.23086547851563	1372.722290039063	812.123779296875	49.26628875732422	1436.773315429688	666.7720947265625	1014.872497558594	1276.70068359375	671.7616577148438	185.2733917236328	1417.602416992188	646.7416381835938	188.2569274902344	1372.268310546875	661.4382934570313	269.2308959960938	1426.031372070313	635.8397827148438	267.9201965332031	1379.411010742188	724.7860107421875	603.3682250976563	1422.937255859375	662.087646484375	601.8734130859375	1384.642944335938	721.1830444335938	713.94482421875	1421.138793945313	663.0087280273438	712.0355834960938	1383.285400390625	767.608642578125	437.5517883300781	1361.615600585938	
3	0.01333333333333333	693.3828735351563	98.40718078613281	1047.580444335938	709.7828369140625	109.5070877075195	1133.8291015625	822.97607421875	983.8321533203125	1113.479370117188	746.72998046875	902.7015991210938	1069.672241210938	627.7817993164063	38.75185775756836	1081.567016601563	664.341552734375	60.73200988769531	1044.093627929688	635.2440185546875	88.47528076171875	1084.05078125	706.7039184570313	459.8803100585938	1051.665405273438	758.2897338867188	1047.490966796875	1081.034057617188	707.6917114257813	523.4265747070313	1058.21337890625	700.2556762695313	507.4448852539063	1187.4697265625	837.2566528320313	55.0996208190918	1136.192504882813	835.7568359375	70.04673767089844	1086.121704101563	810.7980346679688	51.43678665161133	1028.004760742188	663.9293823242188	1019.93994140625	1200.802368164063	683.2999267578125	193.3983459472656	1037.445190429688	644.0594482421875	188.1703796386719	1073.237915039063	670.8349609375	272.4078674316406	1031.921875	631.5413208007813	267.9345092773438	1067.797241210938	684.8970336914063	642.1598510742188	1056.322509765625	637.948486328125	644.1100463867188	1112.532836914063	689.88916015625	752.910400390625	1059.32568359375	649.1981201171875	753.96142578125	1115.850708007813	757.0178833007813	440.5021667480469	1108.173461914063	698.3482055664063	99.51931762695313	1416.491088867188	714.2022705078125	115.5425720214844	1329.02490234375	829.6112060546875	980.267333984375	1347.963500976563	760.1885375976563	898.67822265625	1395.07421875	630.5125122070313	38.064453125	1376.5986328125	667.3767700195313	60.46115493774414	1418.115112304688	638.5697021484375	86.51107788085938	1374.3134765625	721.263916015625	456.7595825195313	1418.705322265625	775.57666015625	1049.368774414063	1388.618530273438	725.632568359375	523.970458984375	1412.383544921875	699.4419555664063	503.6580200195313	1282.414184570313	835.2326049804688	59.96988296508789	1326.86767578125	843.4835815429688	69.22673034667969	1372.717407226563	812.1123657226563	49.26099395751953	1436.774780273438	666.7692260742188	1014.872497558594	1276.690063476563	671.7554321289063	185.2723999023438	1417.596069335938	646.7406616210938	188.2496795654297	1372.258056640625	661.4297485351563	269.2298583984375	1426.024780273438	635.8343505859375	267.9113159179688	1379.408447265625	724.7703857421875	603.3786010742188	1422.9306640625	662.0623168945313	601.8698120117188	1384.626708984375	721.1644287109375	713.93896484375	1421.119750976563	662.9995727539063	712.0259399414063	1383.276123046875	767.5973510742188	437.5574645996094	1361.593383789063	
4	0.02	693.3701782226563	98.41059875488281	1047.5830078125	709.7882690429688	109.5073699951172	1133.834594726563	822.9838256835938	983.830322265625	1113.481567382813	746.7466430664063	902.693359375	1069.666625976563	627.786865234375	38.75962066650391	1081.555297851563	664.3449096679688	60.73522186279297	1044.085205078125	635.2481079101563	88.47586059570313	1084.060913085938	706.6937866210938	459.8802795410156	1051.6630859375	758.2963256835938	1047.488891601563	1081.027954101563	707.6779174804688	523.42822265625	1058.209350585938	700.2512817382813	507.4408264160156	1187.45556640625	837.2625732421875	55.10782241821289	1136.1865234375	835.755859375	70.03671264648438	1086.115234375	810.7982788085938	51.43350601196289	1028.00439453125	663.92626953125	1019.952026367188	1200.783935546875	683.293701171875	193.3990020751953	1037.448120117188	644.0532836914063	188.1679840087891	1073.23095703125	670.8280639648438	272.4114379882813	1031.91455078125	631.5365600585938	267.9407653808594	1067.805419921875	684.8931884765625	642.155517578125	1056.322509765625	637.9413452148438	644.1077880859375	1112.524047851563	689.893798828125	752.9115600585938	1059.320556640625	649.1967163085938	753.9658203125	1115.84033203125	757.007080078125	440.4844665527344	1108.149780273438	698.3361206054688	99.51408386230469	1416.474731445313	714.1954956054688	115.5308151245117	1329.020629882813	829.5986328125	980.2552490234375	1347.9619140625	760.1664428710938	898.6876220703125	1395.065185546875	630.5132446289063	38.05737686157227	1376.601684570313	667.3790893554688	60.45929336547852	1418.1220703125	638.5653686523438	86.51202392578125	1374.312866210938	721.2503051757813	456.7490539550781	1418.6982421875	775.5797119140625	1049.320556640625	1388.643676757813	725.6062622070313	523.9661254882813	1412.370361328125	699.4404907226563	503.6492004394531	1282.407348632813	835.2240600585938	59.96960830688477	1326.865234375	843.474853515625	69.22858428955078	1372.713134765625	812.1063842773438	49.26340484619141	1436.771484375	666.7702026367188	1014.88623046875	1276.673583984375	671.7501220703125	185.2703552246094	1417.589965820313	646.7339477539063	188.2462463378906	1372.252563476563	661.4143676757813	269.2299499511719	1426.016845703125	635.8245849609375	267.9144897460938	1379.400024414063	724.7559204101563	603.35986328125	1422.906982421875	662.0450439453125	601.8677978515625	1384.615478515625	721.1431274414063	713.939697265625	1421.111938476563	662.967041015625	712.0230712890625	1383.2685546875	767.5802001953125	437.5587158203125	1361.585693359375	
